<?xml version="1.0" encoding="utf-8"?>
<!-- Generator: Adobe Illustrator 21.1.0, SVG Export Plug-In . SVG Version: 6.00 Build 0)  -->
<svg version="1.1" id="Layer_1" xmlns="http://www.w3.org/2000/svg" xmlns:xlink="http://www.w3.org/1999/xlink" x="0px" y="0px"
	 viewBox="0 0 666 133.4" style="enable-background:new 0 0 666 133.4;" xml:space="preserve">
<style type="text/css">
	.st0{fill:#FFFFFF;}
</style>
<g>
	<g>
		<g>
			<path class="st0" d="M167.6,65.5c-1.9,0.8-3.8,2-5.8,2.4c-2.1,0.4-4.4,0.1-6.5,0.1c-3.9,0.1-5.3,1.4-5.4,5.4
				c-0.1,9,0,17.9,0,26.9c0,5.1,0,10.3,0,15.4c-0.1,8.1-5.6,13.8-13.8,14c-5.1,0.1-10.3,0-15.4,0c-29.1,0-58.2,0-87.3,0
				c-10.6,0-15.9-5.3-15.9-15.9c0-13.1,0-26.2,0-39.4c0-5.6-0.9-6.4-6.5-6.5c-1.7,0-3.5,0-5.2,0c-2.6,0-5.4-0.5-5.7-3.2
				c-0.2-1.8,1.3-4.3,2.9-5.6c7.1-5.8,14.4-11.3,21.7-17C41,29.6,57.4,16.9,73.9,4.2c7.2-5.6,12.6-5.6,19.8,0
				c23.5,18.2,47,36.4,70.5,54.6c1.3,1,2.3,2.3,3.4,3.5C167.6,63.4,167.6,64.4,167.6,65.5z M16.8,59.2c8.3,3.5,9.9,10.1,9.7,18.1
				c-0.4,12.5-0.1,24.9-0.1,37.4c0,2.7,0.8,5,3.8,5.2c4.5,0.3,9.1,0.1,13.9,0.1c0-1.5,0-2.7,0-3.9c0-9.2-0.2-18.4,0.2-27.5
				c0.4-11,9.3-20,20.2-20.3c12.9-0.3,25.8-0.3,38.7,0c7.8,0.2,14,4.1,17.3,11.1c1.8,3.8,2.7,8.3,2.9,12.6
				c0.4,9.2,0.1,18.5,0.1,28.1c3.8,0,7.3,0,10.7,0c5.8,0,6.9-1.1,6.9-6.9c0-13,0.1-26,0-39c-0.1-7,2-12.4,9.3-15.1
				c-0.9-0.8-1.4-1.4-2.1-1.9c-20.1-15.7-40.1-31.4-60.2-47c-3.2-2.5-5.5-2.5-8.8,0.1c-20.1,15.7-40.2,31.3-60.2,47
				C18.4,57.8,17.8,58.4,16.8,59.2z M53,103c20.6,0,40.9,0,61.4,0c0-2.9,0-5.6,0-8.4c-20.6,0-40.9,0-61.4,0C53,97.5,53,100.2,53,103
				z M54,85.3c20,0,39.6,0,59.5,0c-2.6-5.4-6.5-8.4-12-8.5c-11.8-0.2-23.6-0.2-35.4,0C60.5,76.9,56.5,79.9,54,85.3z M114.4,112.4
				c-20.8,0-41.1,0-61.4,0c0,2.6,0,5,0,7.4c20.6,0,41,0,61.4,0C114.4,117.2,114.4,114.9,114.4,112.4z"/>
		</g>
	</g>
	<g>
		<path class="st0" d="M271.2,99.2c0,2.3-0.8,4.2-2.5,5.9l-9.6,9.6c-1.6,1.6-3.6,2.5-5.9,2.5h-2.8l5.3,12.3l-9.6,4l-6.9-16.3h-16.5
			c-2.3,0-4.2-0.8-5.9-2.5l-9.6-9.6c-1.6-1.6-2.5-3.6-2.5-5.9V56.8c0-2.3,0.8-4.2,2.5-5.9l9.6-9.6c1.6-1.6,3.6-2.5,5.9-2.5h30.6
			c2.3,0,4.2,0.8,5.9,2.5l9.6,9.6c1.6,1.6,2.5,3.6,2.5,5.9V99.2z M257.1,96.8V59.1c0-0.6-0.2-1.2-0.7-1.6l-4.6-4.6
			c-0.5-0.5-1-0.7-1.6-0.7h-24.5c-0.6,0-1.2,0.2-1.6,0.7l-4.6,4.6c-0.5,0.5-0.7,1-0.7,1.6v37.7c0,0.6,0.2,1.2,0.7,1.6l4.6,4.6
			c0.5,0.5,1,0.7,1.6,0.7h7.7l-2.8-6.7l9.6-4.3l4.6,11h5.4c0.6,0,1.2-0.2,1.6-0.7l4.6-4.6C256.9,98,257.1,97.4,257.1,96.8z"/>
		<path class="st0" d="M357.5,99.2c0,2.3-0.8,4.2-2.5,5.9l-9.6,9.6c-1.6,1.6-3.6,2.5-5.9,2.5h-30.6c-2.3,0-4.2-0.8-5.9-2.5l-9.6-9.6
			c-1.6-1.6-2.5-3.6-2.5-5.9V56.8c0-2.3,0.8-4.2,2.5-5.9l9.6-9.6c1.6-1.6,3.6-2.5,5.9-2.5h30.6c2.3,0,4.2,0.8,5.9,2.5l9.6,9.6
			c1.6,1.6,2.5,3.6,2.5,5.9V99.2z M343.4,96.8V59.1c0-0.6-0.2-1.2-0.7-1.6l-4.6-4.6c-0.5-0.5-1-0.7-1.6-0.7h-24.5
			c-0.6,0-1.2,0.2-1.6,0.7l-4.6,4.6c-0.5,0.5-0.7,1-0.7,1.6v37.7c0,0.6,0.2,1.2,0.7,1.6l4.6,4.6c0.5,0.5,1,0.7,1.6,0.7h24.5
			c0.6,0,1.2-0.2,1.6-0.7l4.6-4.6C343.1,98,343.4,97.4,343.4,96.8z"/>
		<path class="st0" d="M443.7,99.2c0,2.3-0.8,4.2-2.5,5.9l-9.6,9.6c-1.6,1.6-3.6,2.5-5.9,2.5h-30.6c-2.3,0-4.2-0.8-5.9-2.5l-9.6-9.6
			c-1.6-1.6-2.5-3.6-2.5-5.9V56.8c0-2.3,0.8-4.2,2.5-5.9l9.6-9.6c1.6-1.6,3.6-2.5,5.9-2.5h30.6c2.3,0,4.2,0.8,5.9,2.5l9.6,9.6
			c1.6,1.6,2.5,3.6,2.5,5.9V99.2z M429.6,96.8V59.1c0-0.6-0.2-1.2-0.7-1.6l-4.6-4.6c-0.5-0.5-1-0.7-1.6-0.7h-24.5
			c-0.6,0-1.2,0.2-1.6,0.7l-4.6,4.6c-0.5,0.5-0.7,1-0.7,1.6v37.7c0,0.6,0.2,1.2,0.7,1.6l4.6,4.6c0.5,0.5,1,0.7,1.6,0.7h24.5
			c0.6,0,1.2-0.2,1.6-0.7l4.6-4.6C429.4,98,429.6,97.4,429.6,96.8z"/>
		<path class="st0" d="M519.2,117.1h-52.5V38.8h52.5v13.4h-38.4v19h38.4v13.4h-38.4v19.1h38.4V117.1z"/>
		<path class="st0" d="M591.7,52.2H569v64.9H555V52.2h-22.6V38.8h59.4V52.2z"/>
		<path class="st0" d="M666,99.2c0,2.3-0.8,4.2-2.5,5.9l-9.6,9.6c-1.6,1.6-3.6,2.5-5.9,2.5h-23.6c-2.3,0-4.2-0.8-5.9-2.5l-9.6-9.6
			c-1.6-1.6-2.5-3.6-2.5-5.9V38.8h14.1v58c0,0.6,0.2,1.2,0.7,1.6l4.6,4.6c0.5,0.5,1,0.7,1.6,0.7H645c0.6,0,1.2-0.2,1.6-0.7l4.6-4.6
			c0.5-0.5,0.7-1,0.7-1.6v-58H666V99.2z"/>
	</g>
</g>
</svg>
